<mxfile host="app.diagrams.net" agent="Mozilla/5.0 (Windows NT 10.0; Win64; x64; rv:139.0) Gecko/20100101 Firefox/139.0" version="27.1.6">
  <diagram name="Seite-1" id="GMx1bsoJCzmxL5je-vcH">
    <mxGraphModel dx="1042" dy="563" grid="1" gridSize="10" guides="1" tooltips="1" connect="1" arrows="1" fold="1" page="1" pageScale="1" pageWidth="827" pageHeight="1169" math="0" shadow="0">
      <root>
        <mxCell id="0" />
        <mxCell id="1" parent="0" />
        <mxCell id="P992E0XuD9_Mefu6UTS9-9" value="&lt;p style=&quot;white-space: pre-wrap;&quot; dir=&quot;auto&quot;&gt;Class: Reservation&lt;/p&gt;" style="swimlane;childLayout=stackLayout;horizontal=1;startSize=50;horizontalStack=0;rounded=1;fontSize=14;fontStyle=0;strokeWidth=2;resizeParent=0;resizeLast=1;shadow=0;dashed=0;align=center;arcSize=4;whiteSpace=wrap;html=1;" parent="1" vertex="1">
          <mxGeometry x="130" y="305" width="250" height="180" as="geometry" />
        </mxCell>
        <mxCell id="P992E0XuD9_Mefu6UTS9-10" value="&lt;li&gt;&lt;span&gt;-&lt;span style=&quot;color: light-dark(rgb(0, 0, 0), rgb(21, 250, 255));&quot;&gt;&lt;b&gt;id&lt;/b&gt;&lt;/span&gt;: Long (PK)&lt;/span&gt;&lt;/li&gt;&lt;li&gt;&lt;span&gt;-date: LocalDate&lt;/span&gt;&lt;/li&gt;&lt;li&gt;&lt;span&gt;-fromTime: LocalTime&lt;/span&gt;&lt;/li&gt;&lt;li&gt;&lt;span&gt;-toTime: LocalTime&lt;/span&gt;&lt;/li&gt;&lt;li&gt;&lt;span&gt;-room: String&lt;/span&gt;&lt;/li&gt;&lt;li&gt;&lt;span&gt;-comment: String&lt;/span&gt;&lt;/li&gt;&lt;li&gt;&lt;span&gt;-&lt;/span&gt;&lt;span style=&quot;white-space: pre-wrap&quot;&gt;publicKey: String (Unique)&lt;/span&gt;&lt;/li&gt;&lt;li&gt;&lt;span style=&quot;white-space: pre-wrap&quot;&gt;-privateKey: String (Unique)&lt;/span&gt;&lt;/li&gt;" style="align=left;strokeColor=none;fillColor=none;spacingLeft=4;spacingRight=4;fontSize=12;verticalAlign=top;resizable=0;rotatable=0;part=1;html=1;whiteSpace=wrap;" parent="P992E0XuD9_Mefu6UTS9-9" vertex="1">
          <mxGeometry y="50" width="250" height="130" as="geometry" />
        </mxCell>
        <mxCell id="P992E0XuD9_Mefu6UTS9-12" value="&lt;p style=&quot;white-space: pre-wrap;&quot; dir=&quot;auto&quot;&gt;Class: Participant&lt;/p&gt;" style="swimlane;childLayout=stackLayout;horizontal=1;startSize=50;horizontalStack=0;rounded=1;fontSize=14;fontStyle=0;strokeWidth=2;resizeParent=0;resizeLast=1;shadow=0;dashed=0;align=center;arcSize=4;whiteSpace=wrap;html=1;" parent="1" vertex="1">
          <mxGeometry x="480" y="330" width="250" height="130" as="geometry" />
        </mxCell>
        <mxCell id="P992E0XuD9_Mefu6UTS9-13" value="&lt;li&gt;&lt;span&gt;-&lt;/span&gt;&lt;span&gt;&lt;span style=&quot;color: light-dark(rgb(0, 0, 0), rgb(21, 250, 255));&quot;&gt;&lt;b&gt;id&lt;/b&gt;&lt;/span&gt;&lt;/span&gt;&lt;span&gt;: Long (PK)&lt;/span&gt;&lt;/li&gt;&lt;li&gt;&lt;span&gt;-firstName: String&lt;/span&gt;&lt;/li&gt;&lt;li&gt;&lt;span&gt;-lastName: String&lt;/span&gt;&lt;/li&gt;&lt;li&gt;&lt;span&gt;-&lt;/span&gt;&lt;span style=&quot;white-space: pre-wrap&quot;&gt;reservation_id: Long (FK)&lt;/span&gt;&lt;span&gt;&lt;/span&gt;&lt;/li&gt;" style="align=left;strokeColor=none;fillColor=none;spacingLeft=4;spacingRight=4;fontSize=12;verticalAlign=top;resizable=0;rotatable=0;part=1;html=1;whiteSpace=wrap;" parent="P992E0XuD9_Mefu6UTS9-12" vertex="1">
          <mxGeometry y="50" width="250" height="80" as="geometry" />
        </mxCell>
        <mxCell id="P992E0XuD9_Mefu6UTS9-42" value="" style="edgeStyle=entityRelationEdgeStyle;fontSize=12;html=1;endArrow=ERoneToMany;rounded=0;entryX=0;entryY=0.5;entryDx=0;entryDy=0;exitX=1;exitY=0.5;exitDx=0;exitDy=0;" parent="1" source="P992E0XuD9_Mefu6UTS9-10" target="P992E0XuD9_Mefu6UTS9-13" edge="1">
          <mxGeometry width="100" height="100" relative="1" as="geometry">
            <mxPoint x="370" y="270" as="sourcePoint" />
            <mxPoint x="870" y="180" as="targetPoint" />
          </mxGeometry>
        </mxCell>
        <mxCell id="P992E0XuD9_Mefu6UTS9-62" style="edgeStyle=orthogonalEdgeStyle;rounded=0;orthogonalLoop=1;jettySize=auto;html=1;exitX=1;exitY=0;exitDx=0;exitDy=0;entryX=1;entryY=0.5;entryDx=0;entryDy=0;" parent="1" target="P992E0XuD9_Mefu6UTS9-41" edge="1">
          <mxGeometry relative="1" as="geometry">
            <mxPoint x="780" y="1440" as="targetPoint" />
            <Array as="points">
              <mxPoint x="725" y="540" />
              <mxPoint x="800" y="540" />
              <mxPoint x="800" y="1405" />
            </Array>
            <mxPoint x="725" y="560" as="sourcePoint" />
          </mxGeometry>
        </mxCell>
      </root>
    </mxGraphModel>
  </diagram>
</mxfile>
